/* XPM */
static char *dummy[]={
"32 32 9 1",
"# c None",
"a c #000000",
"f c #0000ff",
"c c #0080c0",
". c #00ff00",
"b c #00ffff",
"d c #80e080",
"e c #a6caf0",
"g c #ff00ff",
"..##############################",
"..#########################a####",
"..#########################aa###",
"..#########################a#a##",
"..#########################a#a##",
"..##..#####################a##a#",
"..##..########bb###########a####",
"......########bb###########a####",
"......########bbcc#########a####",
"......##dd####bbcc######aaaa####",
"......##dd##eebbcc#####aaaaa####",
"......##dd##eebbccff###aaaaa####",
"........dd##eebbccff###aaaaa####",
"........ddddeebbccff####aaa#####",
"........ddddeebbccff############",
"........ddddeebbccff############",
"........ddddeebbccff############",
"........ddddeebbccff############",
"........ddddeebbccffff##########",
"........ddddeebbccffff##########",
"........ddddeebbccffff##########",
"........ddddeebbccffffff########",
"........ddddeebbccffffff########",
"........ddddeebbccffffff########",
"........ddddeebbccffffff########",
"........ddddeebbccffffff########",
"........ddddeebbccffffffgg######",
"........ddddeebbccffffffgg######",
"........ddddeebbccffffffgggg####",
"........ddddeebbccffffffgggg####",
"........ddddeebbccffffffgggggggg",
"........ddddeebbccffffffgggggggg"};
